<?xml version="1.0" encoding="UTF-8"?>
<!DOCTYPE svg PUBLIC "-//W3C//DTD SVG 1.1//EN" "http://www.w3.org/Graphics/SVG/1.1/DTD/svg11.dtd">
<!-- Creator: CorelDRAW X7 -->
<svg xmlns="http://www.w3.org/2000/svg" xml:space="preserve" width="2.7092mm" height="2.7092mm" version="1.1" style="shape-rendering:geometricPrecision; text-rendering:geometricPrecision; image-rendering:optimizeQuality; fill-rule:evenodd; clip-rule:evenodd"
viewBox="0 0 271 271"
 xmlns:xlink="http://www.w3.org/1999/xlink">
 <defs>
  <style type="text/css">
   <![CDATA[
    .fil0 {fill:#006955}
    .fil1 {fill:#0B364B}
   ]]>
  </style>
 </defs>
 <g id="Capa_x0020_1">
  <metadata id="CorelCorpID_0Corel-Layer"/>
  <polygon class="fil0" points="262,13 262,250 215,250 195,250 173,203 215,203 215,156 151,155 130,109 215,108 215,61 108,60 86,13 "/>
  <g>
   <path class="fil1" d="M94 155l-22 -46 -9 0 0 16 0 30 31 0zm19 47l-50 0c0,18 0,36 0,48l-48 0 0 -237 64 0 107 237 -52 0c-5,-12 -11,-24 -16,-36l-5 -12z"/>
  </g>
 </g>
</svg>
